# xmcd CD database file
#
# Track frame offsets:
#	150
#	24792
#	46547
#	78830
#	94812
#	113882
#	139405
#	165135
#	187235
#	201527
#	216322
#	233050
#	258975
#
# Disc length: 3680 seconds
#
# Revision: 0
# Processed by: cddbd v1.5.1PL0 Copyright (c) Steve Scherf et al.
# Submitted via: CDex 1.51
#
DISCID=aa0e5e0d
DTITLE=Omnibus - Contemporary
DYEAR=1900
DGENRE=Jazz
TTITLE0=You'd be so nice to come home to/Art Pepper
TTITLE1=Jazz me blues/Art Pepper
TTITLE2=Las cuevas de Mario/Art Pepper
TTITLE3=Walkin' shoes/Art Pepper
TTITLE4=Get me to the church on time/Shelly Manne
TTITLE5=On the street where you live/Shelly Manne
TTITLE6=I'm an old cowhand/Sonny Rollins
TTITLE7=Rock-a-bye you baby with a Dixie melody/Sonny Rollins
TTITLE8=Lullaby of birdland/Barney Kessfl
TTITLE9=Salute to Charlie Christian/Barney Kessfl
TTITLE10=Hamp's blues/Hampton Hawas
TTITLE11=Blues the most/Hampton Hawas
TTITLE12=Cheryl/Phineas Newborn Jr.
EXTD=
EXTT0=
EXTT1=
EXTT2=
EXTT3=
EXTT4=
EXTT5=
EXTT6=
EXTT7=
EXTT8=
EXTT9=
EXTT10=
EXTT11=
EXTT12=
PLAYORDER=
